# Blender 3.6.2
# www.blender.org
mtllib basket.mtl
o BasketBall_Board
v 1.949093 2.958465 1.428966
v 1.949093 5.115456 1.428965
v -1.880667 2.958465 1.428966
v -1.880667 5.115456 1.428965
v -1.880667 2.958465 1.650922
v -1.880667 5.115456 1.650922
v 1.949093 2.958465 1.650922
v 1.949093 5.115456 1.650922
v -0.528055 3.303535 2.278120
v -0.438589 3.303535 2.278120
v -0.438589 3.476047 2.278120
v -0.528055 3.476047 2.278120
v -0.448625 3.303535 1.989647
v -0.371515 3.303535 2.034521
v -0.371515 3.476047 2.034521
v -0.448625 3.476047 1.989647
v -0.254260 3.303535 1.795282
v -0.209386 3.303535 1.872392
v -0.209386 3.476047 1.872392
v -0.254260 3.476047 1.795282
v 0.034213 3.303535 1.805318
v 0.034213 3.476047 1.805318
v 0.034213 3.476047 1.715852
v 0.322686 3.303535 1.795282
v 0.277812 3.303535 1.872392
v 0.277812 3.476047 1.872392
v 0.322686 3.476047 1.795282
v 0.517051 3.303535 1.989647
v 0.439941 3.303535 2.034521
v 0.439941 3.476047 2.034521
v 0.517051 3.476047 1.989647
v 0.596481 3.303535 2.278120
v 0.507015 3.303535 2.278120
v 0.507015 3.476047 2.278120
v 0.596481 3.476047 2.278120
v 0.517051 3.303535 2.566594
v 0.439941 3.303535 2.521719
v 0.439941 3.476047 2.521719
v 0.517051 3.476047 2.566594
v 0.322686 3.303535 2.760958
v 0.277812 3.303535 2.683848
v 0.277812 3.476047 2.683848
v 0.322686 3.476047 2.760958
v 0.034213 3.303535 2.840389
v 0.034213 3.303535 2.750922
v 0.034213 3.476047 2.750922
v 0.034213 3.476047 2.840389
v -0.254260 3.303535 2.760958
v -0.209386 3.303535 2.683848
v -0.209386 3.476047 2.683848
v -0.254260 3.476047 2.760958
v -0.448625 3.303535 2.566594
v -0.371515 3.303535 2.521719
v -0.371515 3.476047 2.521719
v -0.448625 3.476047 2.566594
v -0.254260 3.303535 1.639236
v -0.254260 3.476047 1.639236
v 0.034213 3.476047 1.639197
v 0.322686 3.303535 1.639236
v 0.322686 3.476047 1.639236
v -0.254260 3.207600 1.639236
v 0.034213 3.207600 1.639197
v 0.322686 3.207600 1.639236
v 1.426633 3.890752 1.078939
v 1.502263 3.911409 1.055468
v 1.533530 3.961376 0.998695
v 1.502263 4.011343 0.941922
v 1.426633 4.032001 0.918450
v 1.351003 4.011343 0.941922
v 1.319736 3.961376 0.998695
v 1.351003 3.911409 1.055468
v 1.426633 2.756029 0.080244
v 1.502263 2.776687 0.056773
v 1.533530 2.826654 -0.000000
v 1.502263 2.876621 -0.056773
v 1.426633 2.897279 -0.080245
v 1.351003 2.876621 -0.056773
v 1.319736 2.826654 -0.000000
v 1.351003 2.776687 0.056773
v 1.426633 3.766664 1.428966
v 1.564392 3.823617 1.428966
v 1.621346 3.961376 1.428965
v 1.564392 4.099136 1.428965
v 1.426633 4.156089 1.428965
v 1.288874 4.099136 1.428965
v 1.231921 3.961376 1.428965
v 1.288874 3.823617 1.428966
v 1.426633 3.766664 -0.000000
v 1.564392 3.823617 -0.000000
v 1.621346 3.961376 -0.000000
v 1.564392 4.099136 -0.000000
v 1.426633 4.156089 -0.000000
v 1.288874 4.099136 -0.000000
v 1.231921 3.961376 -0.000000
v 1.288874 3.823617 -0.000000
v 1.426633 4.705410 -0.301413
v 1.426633 4.705410 0.301412
v 1.213384 4.705410 0.213249
v 1.125221 4.705410 -0.000000
v 1.213384 4.705410 -0.213250
v 1.639883 1.661311 -0.213249
v 1.728046 1.661311 -0.000000
v 1.639883 1.661311 0.213249
v 1.426633 1.661311 0.301412
v 1.213384 1.661311 0.213249
v 1.125221 1.661311 -0.000000
v 1.213384 1.661311 -0.213249
v 1.426633 1.661311 -0.301413
v 1.426633 -0.000000 -0.500531
v 1.780759 -0.000000 -0.354126
v 1.927164 0.000000 0.000000
v 1.780759 0.000000 0.354126
v 1.426633 0.000000 0.500531
v 1.072508 0.000000 0.354126
v 0.926102 0.000000 0.000000
v 1.072508 -0.000000 -0.354126
v 1.780759 1.661311 -0.354126
v 1.927164 1.661311 -0.000000
v 1.780759 1.661311 0.354126
v 1.426633 1.661311 0.500531
v 1.072508 1.661311 0.354126
v 0.926102 1.661311 -0.000000
v 1.072508 1.661311 -0.354126
v 1.426633 1.661311 -0.500531
v 1.639883 4.705410 -0.213250
v 1.728046 4.705410 -0.000000
v 1.639883 4.705410 0.213249
v -1.448563 3.890752 1.078939
v -1.372933 3.911409 1.055468
v -1.341665 3.961376 0.998695
v -1.372933 4.011343 0.941922
v -1.448563 4.032001 0.918450
v -1.524192 4.011343 0.941922
v -1.555460 3.961376 0.998695
v -1.524192 3.911409 1.055468
v -1.448563 2.756029 0.080244
v -1.372933 2.776687 0.056773
v -1.341665 2.826654 -0.000000
v -1.372933 2.876621 -0.056773
v -1.448563 2.897279 -0.080245
v -1.524192 2.876621 -0.056773
v -1.555460 2.826654 -0.000000
v -1.524192 2.776687 0.056773
v -1.448563 3.766664 1.428966
v -1.310803 3.823617 1.428966
v -1.253850 3.961376 1.428965
v -1.310803 4.099136 1.428965
v -1.448563 4.156089 1.428965
v -1.586322 4.099136 1.428965
v -1.643275 3.961376 1.428965
v -1.586322 3.823617 1.428966
v -1.448563 3.766664 -0.000000
v -1.310803 3.823617 -0.000000
v -1.253850 3.961376 -0.000000
v -1.310803 4.099136 -0.000000
v -1.448563 4.156089 -0.000000
v -1.586322 4.099136 -0.000000
v -1.643275 3.961376 -0.000000
v -1.586322 3.823617 -0.000000
v -1.448563 4.705410 -0.301413
v -1.448563 4.705410 0.301412
v -1.661812 4.705410 0.213249
v -1.749975 4.705410 -0.000000
v -1.661812 4.705410 -0.213250
v -1.235313 1.661311 -0.213249
v -1.147150 1.661311 -0.000000
v -1.235313 1.661311 0.213249
v -1.448563 1.661311 0.301412
v -1.661812 1.661311 0.213249
v -1.749975 1.661311 -0.000000
v -1.661812 1.661311 -0.213249
v -1.448563 1.661311 -0.301413
v -1.448563 -0.000000 -0.500531
v -1.094437 -0.000000 -0.354126
v -0.948032 0.000000 0.000000
v -1.094437 0.000000 0.354126
v -1.448563 0.000000 0.500531
v -1.802688 0.000000 0.354126
v -1.949093 0.000000 0.000000
v -1.802688 -0.000000 -0.354126
v -1.094437 1.661311 -0.354126
v -0.948032 1.661311 -0.000000
v -1.094437 1.661311 0.354126
v -1.448563 1.661311 0.500531
v -1.802688 1.661311 0.354126
v -1.949093 1.661311 -0.000000
v -1.802688 1.661311 -0.354126
v -1.448563 1.661311 -0.500531
v -1.235313 4.705410 -0.213250
v -1.147150 4.705410 -0.000000
v -1.235313 4.705410 0.213249
vn -0.0000 -0.0000 -1.0000
vn -1.0000 -0.0000 -0.0000
vn -0.0000 -0.0000 1.0000
vn 1.0000 -0.0000 -0.0000
vn -0.0000 1.0000 -0.0000
vn -0.0000 -1.0000 -0.0000
vn 0.8643 -0.0000 0.5030
vn -0.8643 -0.0000 -0.5030
vn -0.0031 -0.9843 0.1763
vn 0.5030 -0.0000 0.8643
vn -0.7071 -0.0000 -0.7071
vn -0.0001 -0.9641 0.2655
vn 0.0030 -0.9843 0.1763
vn -0.5030 -0.0000 0.8643
vn -0.8643 -0.0000 0.5030
vn 0.8643 -0.0000 -0.5030
vn 0.7071 -0.0000 -0.7071
vn -0.5030 -0.0000 -0.8643
vn -0.0000 0.0001 1.0000
vn 0.5030 -0.0000 -0.8643
vn -0.0089 -0.8591 0.5117
vn -0.0002 -0.8590 0.5120
vn 0.0089 -0.8591 0.5117
vn 0.3821 -0.6106 0.6937
vn 0.9241 -0.2524 0.2868
vn 0.9241 0.2524 -0.2868
vn 0.3821 0.6106 -0.6937
vn -0.3821 0.6106 -0.6937
vn -0.9241 0.2524 -0.2868
vn -0.9241 -0.2524 0.2868
vn -0.3821 -0.6106 0.6937
vn 0.3821 -0.9241 -0.0000
vn 0.9241 -0.3821 -0.0000
vn 0.9241 0.3821 -0.0000
vn 0.3821 0.9241 -0.0000
vn -0.3821 0.9241 -0.0000
vn -0.9241 0.3821 -0.0000
vn -0.9241 -0.3821 -0.0000
vn -0.3821 -0.9241 -0.0000
vn 0.3821 -0.0000 -0.9241
vn 0.9241 -0.0000 -0.3821
vn 0.9241 -0.0000 0.3821
vn 0.3821 -0.0000 0.9241
vn -0.3821 -0.0000 0.9241
vn -0.9241 -0.0000 0.3821
vn -0.9241 -0.0000 -0.3821
vn -0.3821 -0.0000 -0.9241
vt 0.006966 0.591853
vt 0.220427 0.592504
vt 0.219270 0.971507
vt 0.005809 0.970855
vt 0.455854 0.593223
vt 0.242393 0.592571
vt 0.242460 0.570606
vt 0.455921 0.571258
vt 0.454697 0.972225
vt 0.241236 0.971574
vt 0.454630 0.994191
vt 0.241169 0.993539
vt 0.477819 0.593290
vt 0.476662 0.972292
vt 0.734912 0.607910
vt 0.728674 0.614163
vt 0.741298 0.635752
vt 0.749849 0.633471
vt 0.603253 0.497173
vt 0.615881 0.507232
vt 0.627677 0.481553
vt 0.611966 0.478333
vt 0.622751 0.512872
vt 0.637149 0.483644
vt 0.603609 0.266266
vt 0.603631 0.249194
vt 0.574021 0.249155
vt 0.573999 0.266227
vt 0.711384 0.594230
vt 0.709036 0.602750
vt 0.589322 0.507517
vt 0.595222 0.522038
vt 0.598933 0.530765
vt 0.630810 0.266302
vt 0.630832 0.249230
vt 0.683998 0.602466
vt 0.570254 0.508882
vt 0.567110 0.524262
vt 0.564781 0.534404
vt 0.703899 0.490500
vt 0.687756 0.529473
vt 0.648783 0.513330
vt 0.664926 0.474357
vt 0.656163 0.609027
vt 0.662456 0.615231
vt 0.553956 0.499047
vt 0.542823 0.509878
vt 0.535620 0.516136
vt 0.687762 0.474342
vt 0.642626 0.632638
vt 0.651154 0.634934
vt 0.546403 0.483451
vt 0.530830 0.487528
vt 0.522181 0.489619
vt 0.371539 0.265956
vt 0.371562 0.248883
vt 0.344359 0.248847
vt 0.344336 0.265919
vt 0.642471 0.662243
vt 0.651017 0.659943
vt 0.547276 0.462806
vt 0.531628 0.459265
vt 0.522206 0.456955
vt 0.401150 0.265996
vt 0.401173 0.248924
vt 0.657461 0.687750
vt 0.663673 0.681490
vt 0.556384 0.444124
vt 0.543965 0.433918
vt 0.537269 0.428195
vt 0.430762 0.266036
vt 0.430785 0.248964
vt 0.680987 0.701323
vt 0.683296 0.692817
vt 0.570336 0.433885
vt 0.564599 0.419593
vt 0.561076 0.411071
vt 0.457964 0.266073
vt 0.457987 0.249001
vt 0.710540 0.701525
vt 0.708253 0.692989
vt 0.588933 0.432368
vt 0.592022 0.417488
vt 0.594336 0.407576
vt 0.487576 0.266112
vt 0.487598 0.249040
vt 0.736033 0.686574
vt 0.729780 0.680362
vt 0.604741 0.442153
vt 0.615660 0.431449
vt 0.622594 0.425306
vt 0.517186 0.266152
vt 0.517209 0.249080
vt 0.749621 0.663056
vt 0.741111 0.660740
vt 0.612398 0.457660
vt 0.627835 0.453361
vt 0.636359 0.451117
vt 0.544388 0.266188
vt 0.544411 0.249116
vt 0.562619 0.543605
vt 0.596173 0.548206
vt 0.646252 0.266322
vt 0.646274 0.249250
vt 0.530284 0.533045
vt 0.328916 0.248826
vt 0.328893 0.265898
vt 0.706681 0.576704
vt 0.679079 0.584109
vt 0.646287 0.239757
vt 0.664920 0.529488
vt 0.651473 0.591497
vt 0.703914 0.513336
vt 0.328929 0.239332
vt 0.167683 0.266322
vt 0.167641 0.258223
vt 0.317233 0.257457
vt 0.317275 0.265556
vt 0.167600 0.250124
vt 0.317192 0.249359
vt 0.167559 0.242025
vt 0.317151 0.241260
vt 0.167517 0.233926
vt 0.317109 0.233161
vt 0.167476 0.225828
vt 0.317068 0.225062
vt 0.167434 0.217729
vt 0.317026 0.216963
vt 0.167393 0.209630
vt 0.316985 0.208864
vt 0.167351 0.201531
vt 0.316943 0.200765
vt 0.663595 0.277940
vt 0.663596 0.292693
vt 0.522181 0.292693
vt 0.522181 0.277941
vt 0.663596 0.307445
vt 0.522181 0.307445
vt 0.663596 0.322197
vt 0.522181 0.322197
vt 0.663596 0.336949
vt 0.522181 0.336950
vt 0.663596 0.351702
vt 0.522181 0.351702
vt 0.663596 0.366454
vt 0.522181 0.366454
vt 0.663596 0.381206
vt 0.522181 0.381206
vt 0.663596 0.395958
vt 0.522181 0.395958
vt 0.156461 0.417963
vt 0.508223 0.416650
vt 0.508416 0.439804
vt 0.160436 0.445900
vt 0.508875 0.462908
vt 0.159094 0.473706
vt 0.509595 0.485991
vt 0.165394 0.499983
vt 0.510563 0.509017
vt 0.171540 0.524968
vt 0.170270 0.310847
vt 0.510036 0.321536
vt 0.509226 0.347291
vt 0.164362 0.335715
vt 0.508629 0.370380
vt 0.158413 0.362054
vt 0.508295 0.393520
vt 0.160045 0.389999
vt 0.142314 0.475586
vt 0.010644 0.492404
vt 0.007490 0.457197
vt 0.139389 0.446989
vt 0.146192 0.505128
vt 0.015349 0.527418
vt 0.157322 0.536846
vt 0.020456 0.558988
vt 0.145234 0.330701
vt 0.010354 0.314211
vt 0.015018 0.277940
vt 0.156033 0.299170
vt 0.141568 0.360379
vt 0.007290 0.350294
vt 0.138938 0.389182
vt 0.005809 0.386130
vt 0.139291 0.418111
vt 0.005883 0.421766
vt 0.687756 0.462708
vt 0.664919 0.462723
vt 0.648783 0.446565
vt 0.664926 0.407592
vt 0.703899 0.423735
vt 0.648767 0.423729
vt 0.703914 0.446571
vt 0.687762 0.407576
vt 0.006141 0.266322
vt 0.006099 0.258223
vt 0.155691 0.257457
vt 0.155733 0.265556
vt 0.006058 0.250124
vt 0.155650 0.249359
vt 0.006017 0.242025
vt 0.155609 0.241260
vt 0.005975 0.233926
vt 0.155567 0.233161
vt 0.005934 0.225828
vt 0.155526 0.225062
vt 0.005892 0.217729
vt 0.155484 0.216963
vt 0.005851 0.209630
vt 0.155443 0.208864
vt 0.005809 0.201531
vt 0.155401 0.200765
vt 0.630852 0.583507
vt 0.630852 0.598259
vt 0.489438 0.598260
vt 0.489437 0.583508
vt 0.630852 0.613012
vt 0.489438 0.613012
vt 0.630852 0.627764
vt 0.489438 0.627764
vt 0.630852 0.642516
vt 0.489438 0.642516
vt 0.630852 0.657268
vt 0.489438 0.657269
vt 0.630852 0.672020
vt 0.489438 0.672021
vt 0.630852 0.686773
vt 0.489438 0.686773
vt 0.630852 0.701525
vt 0.489438 0.701525
vt 0.640089 0.853166
vt 0.991851 0.851853
vt 0.992045 0.875007
vt 0.644064 0.881103
vt 0.992504 0.898111
vt 0.642722 0.908909
vt 0.993223 0.921194
vt 0.649022 0.935186
vt 0.994191 0.944220
vt 0.655169 0.960171
vt 0.653898 0.746050
vt 0.993664 0.756739
vt 0.992854 0.782494
vt 0.647990 0.770918
vt 0.992257 0.805584
vt 0.642041 0.797257
vt 0.991923 0.828723
vt 0.643673 0.825202
vt 0.625943 0.910790
vt 0.494272 0.927607
vt 0.491118 0.892400
vt 0.623017 0.882192
vt 0.629821 0.940332
vt 0.498977 0.962622
vt 0.640950 0.972049
vt 0.504084 0.994191
vt 0.628862 0.765904
vt 0.493983 0.749414
vt 0.498646 0.713144
vt 0.639661 0.734373
vt 0.625196 0.795582
vt 0.490918 0.785497
vt 0.622567 0.824386
vt 0.489437 0.821333
vt 0.622920 0.853314
vt 0.489512 0.856969
vt 0.648767 0.490494
s 0
usemtl BoardSG2
f 3/1/1 4/2/1 2/3/1 1/4/1
f 5/5/2 6/6/2 4/7/2 3/8/2
f 7/9/3 8/10/3 6/6/3 5/5/3
f 1/11/4 2/12/4 8/10/4 7/9/4
f 4/2/5 6/6/5 8/10/5 2/3/5
f 5/5/6 3/13/6 1/14/6 7/9/6
f 13/15/6 14/16/6 10/17/6 9/18/6
f 14/19/7 15/20/7 11/21/4 10/22/4
f 15/20/5 16/23/5 12/24/5 11/21/5
f 16/25/8 13/26/8 9/27/2 12/28/2
f 17/29/9 18/30/6 14/16/6 13/15/6
f 18/31/10 19/32/10 15/20/7 14/19/7
f 19/32/5 20/33/5 16/23/5 15/20/5
f 20/34/11 17/35/11 13/26/8 16/25/8
f 21/36/12 18/30/6 17/29/9
f 21/37/3 22/38/3 19/32/10 18/31/10
f 22/38/5 23/39/5 20/33/5 19/32/5
f 163/40/5 161/41/5 190/42/5 160/43/5
f 24/44/13 25/45/6 21/36/12
f 25/46/14 26/47/14 22/38/3 21/37/3
f 26/47/5 27/48/5 23/39/5 22/38/5
f 164/49/5 163/40/5 160/43/5
f 28/50/6 29/51/6 25/45/6 24/44/13
f 29/52/15 30/53/15 26/47/14 25/46/14
f 30/53/5 31/54/5 27/48/5 26/47/5
f 31/55/16 28/56/16 24/57/17 27/58/17
f 32/59/6 33/60/6 29/51/6 28/50/6
f 33/61/2 34/62/2 30/53/15 29/52/15
f 34/62/5 35/63/5 31/54/5 30/53/5
f 35/64/4 32/65/4 28/56/16 31/55/16
f 36/66/6 37/67/6 33/60/6 32/59/6
f 37/68/8 38/69/8 34/62/2 33/61/2
f 38/69/5 39/70/5 35/63/5 34/62/5
f 39/71/7 36/72/7 32/65/4 35/64/4
f 40/73/6 41/74/6 37/67/6 36/66/6
f 41/75/18 42/76/18 38/69/8 37/68/8
f 42/76/5 43/77/5 39/70/5 38/69/5
f 43/78/10 40/79/10 36/72/7 39/71/7
f 44/80/6 45/81/6 41/74/6 40/73/6
f 45/82/1 46/83/1 42/76/18 41/75/18
f 46/83/5 47/84/5 43/77/5 42/76/5
f 47/85/3 44/86/19 40/79/10 43/78/10
f 48/87/6 49/88/6 45/81/6 44/80/6
f 49/89/20 50/90/20 46/83/1 45/82/1
f 50/90/5 51/91/5 47/84/5 46/83/5
f 51/92/14 48/93/14 44/86/3 47/85/3
f 52/94/6 53/95/6 49/88/6 48/87/6
f 53/96/16 54/97/16 50/90/20 49/89/20
f 54/97/5 55/98/5 51/91/5 50/90/5
f 55/99/15 52/100/15 48/93/14 51/92/14
f 9/18/6 10/17/6 53/95/6 52/94/6
f 10/22/4 11/21/4 54/97/16 53/96/16
f 11/21/5 12/24/5 55/98/5 54/97/5
f 12/28/2 9/27/2 52/100/15 55/99/15
f 23/39/5 58/101/5 57/102/5 20/33/5
f 20/34/2 57/103/2 56/104/2 17/35/2
f 27/48/5 60/105/5 58/101/5 23/39/5
f 24/57/4 59/106/4 60/107/4 27/58/4
f 17/29/9 61/108/21 62/109/22 21/36/12
f 56/104/2 61/110/2 17/35/2
f 161/41/5 191/111/5 190/42/5
f 21/36/12 62/109/22 63/112/23 24/44/13
f 163/40/5 162/113/5 161/41/5
f 24/57/4 63/114/4 59/106/4
f 72/115/24 73/116/24 65/117/24 64/118/24
f 73/116/25 74/119/25 66/120/25 65/117/25
f 74/119/26 75/121/26 67/122/26 66/120/26
f 75/121/27 76/123/27 68/124/27 67/122/27
f 76/123/28 77/125/28 69/126/28 68/124/28
f 77/125/29 78/127/29 70/128/29 69/126/29
f 78/127/30 79/129/30 71/130/30 70/128/30
f 79/129/31 72/131/31 64/132/31 71/130/31
f 88/133/32 89/134/32 81/135/32 80/136/32
f 89/134/33 90/137/33 82/138/33 81/135/33
f 90/137/34 91/139/34 83/140/34 82/138/34
f 91/139/35 92/141/35 84/142/35 83/140/35
f 92/141/36 93/143/36 85/144/36 84/142/36
f 93/143/37 94/145/37 86/146/37 85/144/37
f 94/145/38 95/147/38 87/148/38 86/146/38
f 95/147/39 88/149/39 80/150/39 87/148/39
f 108/151/40 96/152/40 125/153/40 101/154/40
f 101/154/41 125/153/41 126/155/41 102/156/41
f 102/156/42 126/155/42 127/157/42 103/158/42
f 103/158/43 127/157/43 97/159/43 104/160/43
f 104/161/44 97/162/44 98/163/44 105/164/44
f 105/164/45 98/163/45 99/165/45 106/166/45
f 106/166/46 99/165/46 100/167/46 107/168/46
f 107/168/47 100/167/47 96/152/47 108/151/47
f 118/169/41 111/170/41 110/171/41 117/172/41
f 119/173/42 112/174/42 111/170/42 118/169/42
f 120/175/43 113/176/43 112/174/43 119/173/43
f 121/177/44 114/178/44 113/179/44 120/180/44
f 122/181/45 115/182/45 114/178/45 121/177/45
f 123/183/46 116/184/46 115/182/46 122/181/46
f 124/185/47 109/186/47 116/184/47 123/183/47
f 117/172/40 110/171/40 109/186/40 124/185/40
f 102/156/5 118/169/5 117/172/5 101/154/5
f 106/166/5 122/181/5 121/177/5 105/164/5
f 103/158/5 119/173/5 118/169/5 102/156/5
f 107/168/5 123/183/5 122/181/5 106/166/5
f 104/160/5 120/175/5 119/173/5 103/158/5
f 108/151/5 124/185/5 123/183/5 107/168/5
f 105/164/5 121/177/5 120/180/5 104/161/5
f 101/154/5 117/172/5 124/185/5 108/151/5
f 126/187/5 125/188/5 96/189/5
f 99/190/5 97/191/5 126/187/5 96/189/5
f 100/192/5 99/190/5 96/189/5
f 97/191/5 127/193/5 126/187/5
f 99/190/5 98/194/5 97/191/5
f 136/195/24 137/196/24 129/197/24 128/198/24
f 137/196/25 138/199/25 130/200/25 129/197/25
f 138/199/26 139/201/26 131/202/26 130/200/26
f 139/201/27 140/203/27 132/204/27 131/202/27
f 140/203/28 141/205/28 133/206/28 132/204/28
f 141/205/29 142/207/29 134/208/29 133/206/29
f 142/207/30 143/209/30 135/210/30 134/208/30
f 143/209/31 136/211/31 128/212/31 135/210/31
f 152/213/32 153/214/32 145/215/32 144/216/32
f 153/214/33 154/217/33 146/218/33 145/215/33
f 154/217/34 155/219/34 147/220/34 146/218/34
f 155/219/35 156/221/35 148/222/35 147/220/35
f 156/221/36 157/223/36 149/224/36 148/222/36
f 157/223/37 158/225/37 150/226/37 149/224/37
f 158/225/38 159/227/38 151/228/38 150/226/38
f 159/227/39 152/229/39 144/230/39 151/228/39
f 172/231/40 160/232/40 189/233/40 165/234/40
f 165/234/41 189/233/41 190/235/41 166/236/41
f 166/236/42 190/235/42 191/237/42 167/238/42
f 167/238/43 191/237/43 161/239/43 168/240/43
f 168/241/44 161/242/44 162/243/44 169/244/44
f 169/244/45 162/243/45 163/245/45 170/246/45
f 170/246/46 163/245/46 164/247/46 171/248/46
f 171/248/47 164/247/47 160/232/47 172/231/47
f 182/249/41 175/250/41 174/251/41 181/252/41
f 183/253/42 176/254/42 175/250/42 182/249/42
f 184/255/43 177/256/43 176/254/43 183/253/43
f 185/257/44 178/258/44 177/259/44 184/260/44
f 186/261/45 179/262/45 178/258/45 185/257/45
f 187/263/46 180/264/46 179/262/46 186/261/46
f 188/265/47 173/266/47 180/264/47 187/263/47
f 181/252/40 174/251/40 173/266/40 188/265/40
f 166/236/5 182/249/5 181/252/5 165/234/5
f 170/246/5 186/261/5 185/257/5 169/244/5
f 167/238/5 183/253/5 182/249/5 166/236/5
f 171/248/5 187/263/5 186/261/5 170/246/5
f 168/240/5 184/255/5 183/253/5 167/238/5
f 172/231/5 188/265/5 187/263/5 171/248/5
f 169/244/5 185/257/5 184/260/5 168/241/5
f 165/234/5 181/252/5 188/265/5 172/231/5
f 190/42/5 189/267/5 160/43/5
